<svg id="visual" viewBox="0 0 900 600" width="900" height="600" xmlns="http://www.w3.org/2000/svg" xmlns:xlink="http://www.w3.org/1999/xlink" version="1.1"><path d="M0 453L18.8 457.7C37.7 462.3 75.3 471.7 112.8 477.7C150.3 483.7 187.7 486.3 225.2 481.8C262.7 477.3 300.3 465.7 337.8 459.5C375.3 453.3 412.7 452.7 450.2 460.3C487.7 468 525.3 484 562.8 484.5C600.3 485 637.7 470 675.2 471.2C712.7 472.3 750.3 489.7 787.8 491C825.3 492.3 862.7 477.7 881.3 470.3L900 463L900 601L881.3 601C862.7 601 825.3 601 787.8 601C750.3 601 712.7 601 675.2 601C637.7 601 600.3 601 562.8 601C525.3 601 487.7 601 450.2 601C412.7 601 375.3 601 337.8 601C300.3 601 262.7 601 225.2 601C187.7 601 150.3 601 112.8 601C75.3 601 37.7 601 18.8 601L0 601Z" fill="#83aeea"></path><path d="M0 510L18.8 509.2C37.7 508.3 75.3 506.7 112.8 504.2C150.3 501.7 187.7 498.3 225.2 497.3C262.7 496.3 300.3 497.7 337.8 496.5C375.3 495.3 412.7 491.7 450.2 496C487.7 500.3 525.3 512.7 562.8 515.5C600.3 518.3 637.7 511.7 675.2 509.8C712.7 508 750.3 511 787.8 511.3C825.3 511.7 862.7 509.3 881.3 508.2L900 507L900 601L881.3 601C862.7 601 825.3 601 787.8 601C750.3 601 712.7 601 675.2 601C637.7 601 600.3 601 562.8 601C525.3 601 487.7 601 450.2 601C412.7 601 375.3 601 337.8 601C300.3 601 262.7 601 225.2 601C187.7 601 150.3 601 112.8 601C75.3 601 37.7 601 18.8 601L0 601Z" fill="#659ef2"></path><path d="M0 530L18.8 531.2C37.7 532.3 75.3 534.7 112.8 535.8C150.3 537 187.7 537 225.2 535C262.7 533 300.3 529 337.8 526C375.3 523 412.7 521 450.2 520.5C487.7 520 525.3 521 562.8 523.5C600.3 526 637.7 530 675.2 529.3C712.7 528.7 750.3 523.3 787.8 525.3C825.3 527.3 862.7 536.7 881.3 541.3L900 546L900 601L881.3 601C862.7 601 825.3 601 787.8 601C750.3 601 712.7 601 675.2 601C637.7 601 600.3 601 562.8 601C525.3 601 487.7 601 450.2 601C412.7 601 375.3 601 337.8 601C300.3 601 262.7 601 225.2 601C187.7 601 150.3 601 112.8 601C75.3 601 37.7 601 18.8 601L0 601Z" fill="#478df9"></path><path d="M0 554L18.8 555.5C37.7 557 75.3 560 112.8 558.5C150.3 557 187.7 551 225.2 547.7C262.7 544.3 300.3 543.7 337.8 546C375.3 548.3 412.7 553.7 450.2 555.2C487.7 556.7 525.3 554.3 562.8 551C600.3 547.7 637.7 543.3 675.2 540.5C712.7 537.7 750.3 536.3 787.8 539C825.3 541.7 862.7 548.3 881.3 551.7L900 555L900 601L881.3 601C862.7 601 825.3 601 787.8 601C750.3 601 712.7 601 675.2 601C637.7 601 600.3 601 562.8 601C525.3 601 487.7 601 450.2 601C412.7 601 375.3 601 337.8 601C300.3 601 262.7 601 225.2 601C187.7 601 150.3 601 112.8 601C75.3 601 37.7 601 18.8 601L0 601Z" fill="#287bfd"></path><path d="M0 559L18.8 562.8C37.7 566.7 75.3 574.3 112.8 577.8C150.3 581.3 187.7 580.7 225.2 579.3C262.7 578 300.3 576 337.8 573.8C375.3 571.7 412.7 569.3 450.2 570.2C487.7 571 525.3 575 562.8 577.7C600.3 580.3 637.7 581.7 675.2 579.3C712.7 577 750.3 571 787.8 569.5C825.3 568 862.7 571 881.3 572.5L900 574L900 601L881.3 601C862.7 601 825.3 601 787.8 601C750.3 601 712.7 601 675.2 601C637.7 601 600.3 601 562.8 601C525.3 601 487.7 601 450.2 601C412.7 601 375.3 601 337.8 601C300.3 601 262.7 601 225.2 601C187.7 601 150.3 601 112.8 601C75.3 601 37.7 601 18.8 601L0 601Z" fill="#0068ff"></path></svg>